# Blender v2.78 (sub 0) OBJ File: 'cube_textured.blend'
# www.blender.org
mtllib cube4.mtl
o Cube
v 0.500000 -0.500000 -0.500000
v 0.500000 -0.500000 0.500000
v -0.500000 -0.500000 0.500000
v -0.500000 -0.500000 -0.500000
v 0.500000 0.500000 -0.500000
v 0.500000 0.500000 0.500000
v -0.500000 0.500000 0.500000
v -0.500000 0.500000 -0.500000
vt 0.5617 0.9999
vt 0.0001 0.9999
vt 0.0001 0.0001
vt 0.5617 0.0001
vt 1.0000 0.0000
vt 1.0000 1.0000
vt 0.0001 0.9999
vt 0.0001 0.0001
vt 0.0000 0.0000
vt 0.0000 1.0000
vt 1.0000 1.0000
vt 1.0000 0.0000
vt 0.0000 1.0000
vt 0.0000 0.0000
vt 0.0000 0.0000
vt 1.0000 0.0000
vt 1.0000 1.0000
vt 0.0000 1.0000
vn 0.0000 1.0000 0.0000
vn 1.0000 0.0000 0.0000
vn -0.0000 -0.0000 1.0000
vn -1.0000 -0.0000 -0.0000
vn 0.0000 0.0000 -1.0000
vn 0.0000 -1.0000 0.0000
usemtl cube4_top
s off
f 5/1/1 8/2/1 7/3/1 6/4/1
usemtl cube4
f 1/5/2 5/6/2 6/7/2 2/8/2
f 2/9/3 6/10/3 7/11/3 3/12/3
f 3/12/4 7/11/4 8/13/4 4/14/4
f 5/6/5 1/5/5 4/14/5 8/13/5
usemtl Material_NONE
f 1/15/6 2/16/6 3/17/6 4/18/6
