# Blender v2.78 (sub 0) OBJ File: 'wall.blend'
# www.blender.org
mtllib wall.mtl
o Cube
v 0.500000 -0.500000 -0.050000
v 0.500000 -0.500000 0.050000
v -0.500000 -0.500000 0.050000
v -0.500000 -0.500000 -0.050000
v 0.500000 0.500000 -0.050000
v 0.500000 0.500000 0.050000
v -0.500000 0.500000 0.050000
v -0.500000 0.500000 -0.050000
vt 0.6757 0.8714
vt 0.0090 0.8714
vt 0.0090 0.7715
vt 0.6757 0.7715
vt 0.7333 -0.0067
vt 0.7333 0.9999
vt 0.6667 0.9999
vt 0.6667 0.0001
vt 0.6666 0.0001
vt 0.6666 0.9999
vt 0.0001 0.9999
vt 0.0001 0.0001
vt 0.7333 0.0000
vt 0.7333 1.0000
vt 0.6667 1.0000
vt 0.6667 0.0000
vt 0.6667 1.0000
vt 0.6667 0.0000
vt 0.0000 0.0000
vt 0.0000 1.0000
vt 0.0000 0.0000
vt 0.0000 0.0000
vt 0.0000 0.0000
vn 0.0000 1.0000 0.0000
vn 1.0000 0.0000 0.0000
vn -0.0000 -0.0000 1.0000
vn -1.0000 -0.0000 -0.0000
vn 0.0000 0.0000 -1.0000
vn 0.0000 -1.0000 0.0000
usemtl Material
s off
f 5/1/1 8/2/1 7/3/1 6/4/1
f 1/5/2 5/6/2 6/7/2 2/8/2
f 2/9/3 6/10/3 7/11/3 3/12/3
f 3/13/4 7/14/4 8/15/4 4/16/4
f 5/17/5 1/18/5 4/19/5 8/20/5
usemtl Material_NONE
f 1/21/6 2/22/6 3/23/6 4/19/6
